<svg version="1.1" class="ri ri-5ss" width="16" height="16" viewBox="0 0 16 16" fill="none" stroke="none" stroke-linecap="square" stroke-miterlimit="10" xmlns:xlink="http://www.w3.org/1999/xlink" xmlns="http://www.w3.org/2000/svg"><clipPath id="p.0"><path d="m0 0l960.0 0l0 720.0l-960.0 0l0 -720.0z" clip-rule="nonzero"/></clipPath><g clip-path="url(#p.0)"><path fill="#000000" fill-opacity="0.0" d="m0 0l960.0 0l0 720.0l-960.0 0z" fill-rule="evenodd"/><path fill="#4a86e8" d="m211.68504 91.637794l536.6299 0l0 536.72437l-536.6299 0z" fill-rule="evenodd"/><path stroke="#000000" stroke-width="1.0" stroke-linejoin="round" stroke-linecap="butt" d="m211.68504 91.637794l536.6299 0l0 536.72437l-536.6299 0z" fill-rule="evenodd"/><path fill="#000000" d="m458.67917 511.05356l-2.9269714 55.500397l11.229523 7.2612305c3.8088684 -2.0827026 6.9516296 -3.5274048 9.428314 -4.3342285c2.476715 -0.8067627 5.506897 -1.2102051 9.090607 -1.2102051c5.7601624 0 10.535309 1.4447632 14.325409 4.3342285c3.808838 2.8707275 5.713257 7.0736084 5.713257 12.608643c0 3.696228 -0.89123535 6.810852 -2.673706 9.343872c-1.7824402 2.532959 -4.2872925 4.465515 -7.514496 5.7976685c-3.2272034 1.3322144 -6.914093 1.998291 -11.060669 1.998291c-3.4711304 0 -6.73584 -0.487854 -9.794189 -1.463501c-3.0395813 -0.9944458 -5.8915405 -2.3265991 -8.555847 -3.996521c-2.6455688 -1.6698608 -5.1785583 -3.4804688 -7.598938 -5.4318237l-11.398407 16.070374c2.9832764 2.8894653 6.4356384 5.488098 10.357056 7.7959595c3.9214478 2.2890625 8.415131 4.1278076 13.481079 5.5162354c5.084717 1.3884888 10.798004 2.0827026 17.139832 2.0827026c7.486389 0 14.513062 -1.5010376 21.080048 -4.503113c6.585724 -3.0020142 11.895599 -7.3549805 15.929596 -13.058899c4.0339966 -5.7039185 6.0510254 -12.646118 6.0510254 -20.826721c0 -7.7302856 -1.7355347 -14.128418 -5.206665 -19.194397c-3.4523926 -5.084717 -8.030518 -8.83728 -13.734375 -11.25769c-5.7039185 -2.4204102 -11.961304 -3.6305542 -18.772217 -3.6305542c-2.7581177 0 -5.206665 0.20635986 -7.345642 0.6191406c-2.1389465 0.39404297 -4.5312195 1.0601196 -7.1767883 1.99823l1.9138184 -20.601562l45.28409 0l0 -21.417755z" fill-rule="evenodd"/><path fill="#000000" d="m597.1881 506.01575c-8.180542 0 -15.357361 1.5291748 -21.530334 4.5875244c-6.154175 3.0583496 -10.994995 7.1017456 -14.5224 12.130127c-3.508667 5.0097046 -5.2630005 10.619751 -5.2630005 16.830261c0 5.535034 1.1257935 10.291382 3.3773193 14.269104c2.2515259 3.9777222 5.2160645 7.3269043 8.893616 10.047485c3.696228 2.7018433 7.617676 4.859619 11.764282 6.4732056l14.5224 6.2198486c3.5836792 1.5010376 6.698303 2.8613281 9.343872 4.0809326c2.6455688 1.2008057 4.6625977 2.579895 6.0510254 4.137207c1.3884277 1.557312 2.0826416 3.6587524 2.0826416 6.3043213c0 2.8894653 -1.3040161 5.25354 -3.9120483 7.092346c-2.5892334 1.8387451 -6.595093 2.7581177 -12.017578 2.7581177c-5.4036865 0 -10.676025 -1.0882568 -15.817017 -3.2647705c-5.1222534 -2.1951904 -9.822327 -5.019043 -14.100281 -8.4713745l-14.691284 17.449402c6.116699 5.3098755 12.890076 9.3532715 20.32013 12.130188c7.4300537 2.7581177 14.9539795 4.137207 22.571655 4.137207c9.343872 0 17.27118 -1.6136475 23.78186 -4.8408203c6.510742 -3.227234 11.464111 -7.4957275 14.860168 -12.805603c3.3960571 -5.3098755 5.094116 -11.070068 5.094116 -17.280579c0 -5.3098755 -0.9850464 -9.925537 -2.9551392 -13.846985c-1.951355 -3.9213867 -4.7094727 -7.233032 -8.274414 -9.9348755c-3.5649414 -2.720642 -7.8897705 -5.000305 -12.974487 -6.8390503l-13.649963 -5.882141c-3.5836792 -1.36969 -6.763977 -2.626831 -9.540894 -3.7713623c-2.7581177 -1.163269 -4.9439697 -2.4954224 -6.557556 -3.99646c-1.6136475 -1.5010376 -2.4204102 -3.3491821 -2.4204102 -5.5444336c0 -3.3397827 1.3227539 -5.8727417 3.9683228 -7.598938c2.6643066 -1.7261353 6.069763 -2.5892334 10.21637 -2.5892334c5.535034 0 10.263245 0.7786255 14.184692 2.3359375c3.9213867 1.557312 7.8428345 3.7713623 11.764282 6.642029l12.974487 -16.070312c-5.084717 -4.8408203 -10.9105835 -8.52771 -17.4776 -11.060699c-6.5669556 -2.5517273 -13.25592 -3.8276062 -20.066833 -3.8276062z" fill-rule="evenodd"/><path fill="#000000" d="m700.93896 506.01575c-8.180603 0 -15.357361 1.5291748 -21.530334 4.5875244c-6.154236 3.0583496 -10.994995 7.1017456 -14.522461 12.130127c-3.508606 5.0097046 -5.2629395 10.619751 -5.2629395 16.830261c0 5.535034 1.1257935 10.291382 3.3773193 14.269104c2.2515259 3.9777222 5.2160645 7.3269043 8.893555 10.047485c3.696289 2.7018433 7.617676 4.859619 11.764282 6.4732056l14.522461 6.2198486c3.5836792 1.5010376 6.698303 2.8613281 9.343872 4.0809326c2.6455078 1.2008057 4.6625366 2.579895 6.0509644 4.137207c1.3884888 1.557312 2.0827026 3.6587524 2.0827026 6.3043213c0 2.8894653 -1.3040161 5.25354 -3.9120483 7.092346c-2.5892944 1.8387451 -6.595154 2.7581177 -12.017578 2.7581177c-5.4036865 0 -10.676025 -1.0882568 -15.817078 -3.2647705c-5.1222534 -2.1951904 -9.822327 -5.019043 -14.10022 -8.4713745l-14.691284 17.449402c6.116638 5.3098755 12.890015 9.3532715 20.32013 12.130188c7.4300537 2.7581177 14.953918 4.137207 22.571655 4.137207c9.343872 0 17.27118 -1.6136475 23.78186 -4.8408203c6.510681 -3.227234 11.464111 -7.4957275 14.860168 -12.805603c3.3960571 -5.3098755 5.094055 -11.070068 5.094055 -17.280579c0 -5.3098755 -0.9850464 -9.925537 -2.9551392 -13.846985c-1.951294 -3.9213867 -4.7094727 -7.233032 -8.274353 -9.9348755c-3.5649414 -2.720642 -7.8897705 -5.000305 -12.974487 -6.8390503l-13.649963 -5.882141c-3.5836792 -1.36969 -6.763977 -2.626831 -9.540894 -3.7713623c-2.7581177 -1.163269 -4.944031 -2.4954224 -6.557617 -3.99646c-1.6135864 -1.5010376 -2.4204102 -3.3491821 -2.4204102 -5.5444336c0 -3.3397827 1.322815 -5.8727417 3.9683228 -7.598938c2.6643677 -1.7261353 6.069824 -2.5892334 10.21637 -2.5892334c5.535034 0 10.263245 0.7786255 14.184692 2.3359375c3.9214478 1.557312 7.8428955 3.7713623 11.764282 6.642029l12.974487 -16.070312c-5.084717 -4.8408203 -10.9105835 -8.52771 -17.47754 -11.060699c-6.5670166 -2.5517273 -13.255981 -3.8276062 -20.066833 -3.8276062z" fill-rule="evenodd"/><path stroke="#ffffff" stroke-width="3.0" stroke-linejoin="round" stroke-linecap="butt" d="m458.67917 511.05356l-2.9269714 55.500397l11.229523 7.2612305c3.8088684 -2.0827026 6.9516296 -3.5274048 9.428314 -4.3342285c2.476715 -0.8067627 5.506897 -1.2102051 9.090607 -1.2102051c5.7601624 0 10.535309 1.4447632 14.325409 4.3342285c3.808838 2.8707275 5.713257 7.0736084 5.713257 12.608643c0 3.696228 -0.89123535 6.810852 -2.673706 9.343872c-1.7824402 2.532959 -4.2872925 4.465515 -7.514496 5.7976685c-3.2272034 1.3322144 -6.914093 1.998291 -11.060669 1.998291c-3.4711304 0 -6.73584 -0.487854 -9.794189 -1.463501c-3.0395813 -0.9944458 -5.8915405 -2.3265991 -8.555847 -3.996521c-2.6455688 -1.6698608 -5.1785583 -3.4804688 -7.598938 -5.4318237l-11.398407 16.070374c2.9832764 2.8894653 6.4356384 5.488098 10.357056 7.7959595c3.9214478 2.2890625 8.415131 4.1278076 13.481079 5.5162354c5.084717 1.3884888 10.798004 2.0827026 17.139832 2.0827026c7.486389 0 14.513062 -1.5010376 21.080048 -4.503113c6.585724 -3.0020142 11.895599 -7.3549805 15.929596 -13.058899c4.0339966 -5.7039185 6.0510254 -12.646118 6.0510254 -20.826721c0 -7.7302856 -1.7355347 -14.128418 -5.206665 -19.194397c-3.4523926 -5.084717 -8.030518 -8.83728 -13.734375 -11.25769c-5.7039185 -2.4204102 -11.961304 -3.6305542 -18.772217 -3.6305542c-2.7581177 0 -5.206665 0.20635986 -7.345642 0.6191406c-2.1389465 0.39404297 -4.5312195 1.0601196 -7.1767883 1.99823l1.9138184 -20.601562l45.28409 0l0 -21.417755z" fill-rule="evenodd"/><path stroke="#ffffff" stroke-width="3.0" stroke-linejoin="round" stroke-linecap="butt" d="m597.1881 506.01575c-8.180542 0 -15.357361 1.5291748 -21.530334 4.5875244c-6.154175 3.0583496 -10.994995 7.1017456 -14.5224 12.130127c-3.508667 5.0097046 -5.2630005 10.619751 -5.2630005 16.830261c0 5.535034 1.1257935 10.291382 3.3773193 14.269104c2.2515259 3.9777222 5.2160645 7.3269043 8.893616 10.047485c3.696228 2.7018433 7.617676 4.859619 11.764282 6.4732056l14.5224 6.2198486c3.5836792 1.5010376 6.698303 2.8613281 9.343872 4.0809326c2.6455688 1.2008057 4.6625977 2.579895 6.0510254 4.137207c1.3884277 1.557312 2.0826416 3.6587524 2.0826416 6.3043213c0 2.8894653 -1.3040161 5.25354 -3.9120483 7.092346c-2.5892334 1.8387451 -6.595093 2.7581177 -12.017578 2.7581177c-5.4036865 0 -10.676025 -1.0882568 -15.817017 -3.2647705c-5.1222534 -2.1951904 -9.822327 -5.019043 -14.100281 -8.4713745l-14.691284 17.449402c6.116699 5.3098755 12.890076 9.3532715 20.32013 12.130188c7.4300537 2.7581177 14.9539795 4.137207 22.571655 4.137207c9.343872 0 17.27118 -1.6136475 23.78186 -4.8408203c6.510742 -3.227234 11.464111 -7.4957275 14.860168 -12.805603c3.3960571 -5.3098755 5.094116 -11.070068 5.094116 -17.280579c0 -5.3098755 -0.9850464 -9.925537 -2.9551392 -13.846985c-1.951355 -3.9213867 -4.7094727 -7.233032 -8.274414 -9.9348755c-3.5649414 -2.720642 -7.8897705 -5.000305 -12.974487 -6.8390503l-13.649963 -5.882141c-3.5836792 -1.36969 -6.763977 -2.626831 -9.540894 -3.7713623c-2.7581177 -1.163269 -4.9439697 -2.4954224 -6.557556 -3.99646c-1.6136475 -1.5010376 -2.4204102 -3.3491821 -2.4204102 -5.5444336c0 -3.3397827 1.3227539 -5.8727417 3.9683228 -7.598938c2.6643066 -1.7261353 6.069763 -2.5892334 10.21637 -2.5892334c5.535034 0 10.263245 0.7786255 14.184692 2.3359375c3.9213867 1.557312 7.8428345 3.7713623 11.764282 6.642029l12.974487 -16.070312c-5.084717 -4.8408203 -10.9105835 -8.52771 -17.4776 -11.060699c-6.5669556 -2.5517273 -13.25592 -3.8276062 -20.066833 -3.8276062z" fill-rule="evenodd"/><path stroke="#ffffff" stroke-width="3.0" stroke-linejoin="round" stroke-linecap="butt" d="m700.93896 506.01575c-8.180603 0 -15.357361 1.5291748 -21.530334 4.5875244c-6.154236 3.0583496 -10.994995 7.1017456 -14.522461 12.130127c-3.508606 5.0097046 -5.2629395 10.619751 -5.2629395 16.830261c0 5.535034 1.1257935 10.291382 3.3773193 14.269104c2.2515259 3.9777222 5.2160645 7.3269043 8.893555 10.047485c3.696289 2.7018433 7.617676 4.859619 11.764282 6.4732056l14.522461 6.2198486c3.5836792 1.5010376 6.698303 2.8613281 9.343872 4.0809326c2.6455078 1.2008057 4.6625366 2.579895 6.0509644 4.137207c1.3884888 1.557312 2.0827026 3.6587524 2.0827026 6.3043213c0 2.8894653 -1.3040161 5.25354 -3.9120483 7.092346c-2.5892944 1.8387451 -6.595154 2.7581177 -12.017578 2.7581177c-5.4036865 0 -10.676025 -1.0882568 -15.817078 -3.2647705c-5.1222534 -2.1951904 -9.822327 -5.019043 -14.10022 -8.4713745l-14.691284 17.449402c6.116638 5.3098755 12.890015 9.3532715 20.32013 12.130188c7.4300537 2.7581177 14.953918 4.137207 22.571655 4.137207c9.343872 0 17.27118 -1.6136475 23.78186 -4.8408203c6.510681 -3.227234 11.464111 -7.4957275 14.860168 -12.805603c3.3960571 -5.3098755 5.094055 -11.070068 5.094055 -17.280579c0 -5.3098755 -0.9850464 -9.925537 -2.9551392 -13.846985c-1.951294 -3.9213867 -4.7094727 -7.233032 -8.274353 -9.9348755c-3.5649414 -2.720642 -7.8897705 -5.000305 -12.974487 -6.8390503l-13.649963 -5.882141c-3.5836792 -1.36969 -6.763977 -2.626831 -9.540894 -3.7713623c-2.7581177 -1.163269 -4.944031 -2.4954224 -6.557617 -3.99646c-1.6135864 -1.5010376 -2.4204102 -3.3491821 -2.4204102 -5.5444336c0 -3.3397827 1.322815 -5.8727417 3.9683228 -7.598938c2.6643677 -1.7261353 6.069824 -2.5892334 10.21637 -2.5892334c5.535034 0 10.263245 0.7786255 14.184692 2.3359375c3.9214478 1.557312 7.8428955 3.7713623 11.764282 6.642029l12.974487 -16.070312c-5.084717 -4.8408203 -10.9105835 -8.52771 -17.47754 -11.060699c-6.5670166 -2.5517273 -13.255981 -3.8276062 -20.066833 -3.8276062z" fill-rule="evenodd"/></g></svg>
