
 <svg version="1.0" xmlns="http://www.w3.org/2000/svg"  width="48.000000pt" height="48.000000pt" viewBox="0 0 48.000000 48.000000"  preserveAspectRatio="xMidYMid meet">  <g transform="translate(0.000000,48.000000) scale(0.100000,-0.100000)" fill="#ff0000" stroke="none"> <path d="M230 417 c0 -52 -52 -97 -112 -97 -40 0 -49 -4 -72 -34 -14 -19 -26 -37 -26 -40 0 -3 26 -6 57 -6 55 0 59 2 105 47 l48 47 48 -47 c49 -48 49 -48 111 -45 l61 3 -26 38 c-25 35 -31 37 -79 37 -43 0 -55 4 -78 28 -36 38 -34 52 8 52 31 0 35 3 35 25 0 23 -4 25 -40 25 -39 0 -40 -1 -40 -33z"/> <path d="M183 260 c-39 -37 -47 -40 -98 -40 l-55 0 0 -67 c0 -38 -3 -78 -6 -90 l-6 -23 216 0 c198 0 239 5 206 25 -5 3 -10 40 -10 81 l0 74 -50 0 c-45 0 -55 4 -94 40 -24 22 -47 40 -52 40 -5 0 -28 -18 -51 -40z m42 -30 c-4 -11 -2 -20 4 -20 6 0 11 9 11 20 0 26 17 26 25 -1 14 -42 -45 -66 -61 -24 -8 19 2 45 16 45 7 0 9 -8 5 -20z m-125 -66 c0 -9 -5 -14 -12 -12 -18 6 -21 28 -4 28 9 0 16 -7 16 -16z m70 1 c0 -8 -7 -15 -15 -15 -8 0 -15 7 -15 15 0 8 7 15 15 15 8 0 15 -7 15 -15z m150 -1 c0 -9 -5 -14 -12 -12 -18 6 -21 28 -4 28 9 0 16 -7 16 -16z m70 0 c0 -9 -5 -14 -12 -12 -18 6 -21 28 -4 28 9 0 16 -7 16 -16z m-142 -62 c3 -27 0 -32 -17 -32 -16 0 -21 6 -21 28 0 53 33 56 38 4z m-148 8 c0 -11 -4 -20 -9 -20 -14 0 -23 18 -16 30 10 17 25 11 25 -10z m70 0 c0 -11 -4 -20 -9 -20 -14 0 -23 18 -16 30 10 17 25 11 25 -10z m150 0 c0 -21 -15 -27 -25 -10 -7 12 2 30 16 30 5 0 9 -9 9 -20z m70 0 c0 -11 -4 -20 -9 -20 -14 0 -23 18 -16 30 10 17 25 11 25 -10z"/> </g> </svg> 
